
<svg xmlns="http://www.w3.org/2000/svg" xmlns:xlink="http://www.w3.org/1999/xlink" viewBox="60 90 222 68" preserveAspectRatio="xMidYMid meet">
  
    <defs><linearGradient id="92" x1="0%" y1="0%" x2="100%" y2="0%"><stop offset="0%" stop-color="#fa71cd"/> <stop offset="100%" stop-color="#9b59b6"/></linearGradient><linearGradient id="93" x1="0%" y1="0%" x2="100%" y2="0%"><stop offset="0%" stop-color="#f9d423"/> <stop offset="100%" stop-color="#f83600"/></linearGradient><linearGradient id="94" x1="0%" y1="0%" x2="100%" y2="0%"><stop offset="0%" stop-color="#0064d2"/> <stop offset="100%" stop-color="#1cb0f6"/></linearGradient><linearGradient id="95" x1="0%" y1="0%" x2="100%" y2="0%"><stop offset="0%" stop-color="#f00978"/> <stop offset="100%" stop-color="#3f51b1"/></linearGradient><linearGradient id="96" x1="0%" y1="0%" x2="100%" y2="0%"><stop offset="0%" stop-color="#7873f5"/> <stop offset="100%" stop-color="#ec77ab"/></linearGradient><linearGradient id="97" x1="0%" y1="0%" x2="100%" y2="0%"><stop offset="0%" stop-color="#f9d423"/> <stop offset="100%" stop-color="#e14fad"/></linearGradient><linearGradient id="98" x1="0%" y1="0%" x2="100%" y2="0%"><stop offset="0%" stop-color="#009efd"/> <stop offset="100%" stop-color="#2af598"/></linearGradient><linearGradient id="99" x1="0%" y1="0%" x2="100%" y2="0%"><stop offset="0%" stop-color="#ffcc00"/> <stop offset="100%" stop-color="#00b140"/></linearGradient><linearGradient id="100" x1="0%" y1="0%" x2="100%" y2="0%"><stop offset="0%" stop-color="#d51007"/> <stop offset="100%" stop-color="#ff8177"/></linearGradient><linearGradient id="102" x1="0%" y1="0%" x2="100%" y2="0%"><stop offset="0%" stop-color="#a2b6df"/> <stop offset="100%" stop-color="#0c3483"/></linearGradient><linearGradient id="103" x1="0%" y1="0%" x2="100%" y2="0%"><stop offset="0%" stop-color="#7ac5d8"/> <stop offset="100%" stop-color="#eea2a2"/></linearGradient><linearGradient id="104" x1="0%" y1="0%" x2="100%" y2="0%"><stop offset="0%" stop-color="#00ecbc"/> <stop offset="100%" stop-color="#007adf"/></linearGradient><linearGradient id="105" x1="0%" y1="0%" x2="100%" y2="0%"><stop offset="0%" stop-color="#b88746"/> <stop offset="100%" stop-color="#fdf5a6"/></linearGradient></defs> <g fill="#333" class="iconblsvg-g iconsvg" transform="translate(64.95570373535156,94.92854690551758)"><g class="tp-name" transform="translate(0,0)"><g transform="translate(0, 0.9558397195740316)"><g transform="scale(1)"><path d="M2.95-21.93L2.95 0 2.46 0 2.46-26.47 3.74-26.47 19.47-2 19.47-26.47 19.96-26.47 19.96 0 17.2 0 2.95-21.93ZM32.91 0.15Q28.92 0.15 26.43-2.12 23.93-4.39 23.93-9.11 23.93-13.84 26.52-16.45 29.11-19.05 33.1-19.05 37.09-19.05 39.58-16.79 42.08-14.52 42.08-9.79 42.08-5.07 39.49-2.46 36.9 0.15 32.91 0.15ZM33.16-18.75Q30.28-18.75 28.39-16.2 26.5-13.65 26.5-9.09 26.5-4.54 28.24-2.34 29.98-0.15 32.85-0.15 35.73-0.15 37.62-2.7 39.51-5.26 39.51-9.81 39.51-14.37 37.77-16.56 36.03-18.75 33.16-18.75ZM51.57-17.28L51.57-17.28 51.57-18.07Q49.87-17.39 48.47-15.33 47.07-13.27 46.99-11.46L46.99-11.46 46.99 0 44.35 0 44.35-18.9 46.99-18.9 46.99-12.89Q47.6-15.09 49.3-17.03 51-18.98 53.16-19.05L53.16-19.05 53.31-19.05Q54.06-19.05 54.57-18.54 55.09-18.03 55.09-17.28 55.09-16.52 54.57-16.03 54.06-15.54 53.31-15.54 52.55-15.54 52.06-16.03 51.57-16.52 51.57-17.28ZM58.53-18.6L57.73-18.6 57.73-18.9 58.53-18.9 58.53-22.68 61.17-22.68 61.17-18.9 66.96-18.9 66.96-18.6 61.17-18.6 61.17-4.84Q61.17-2.38 61.72-1.29 62.27-0.19 64.03-0.19 65.78-0.19 67.6-0.91L67.6-0.91 67.71-0.6Q65.82 0.11 63.38 0.11 60.95 0.11 59.74-0.89 58.53-1.89 58.53-4.88L58.53-4.88 58.53-18.6ZM87.6 0L85.29 0Q83.74 0 82.93-0.68 82.12-1.36 82.08-2.04L82.08-2.04 82.04-2.68 82.04-14.56Q82.04-17.54 80.45-18.37L80.45-18.37Q79.7-18.75 78.53-18.75L78.53-18.75Q76.18-18.75 74.31-16.84 72.44-14.93 72.44-13.42L72.44-13.42 72.44 0 69.79 0 69.79-28.32 72.44-28.32 72.44-14.59Q73.04-16.22 74.74-17.64 76.45-19.05 78.56-19.05L78.56-19.05Q82.23-19.05 83.46-17.79 84.69-16.52 84.69-14.52L84.69-14.52 84.69-2.68Q84.69-1.59 85.12-1 85.56-0.42 85.97-0.38L85.97-0.38 86.43-0.3 87.6-0.3 87.6 0Z" transform="translate(-2.4600000381469727, 28.31999969482422)"/></g></g> <g transform="translate(88.13999938964844, 0)"><g><g class="imagesvg"><g><rect fill="#333" fill-opacity="0" stroke-width="2" x="0" y="0" width="30.35860153900332" height="30.382907865295557" class="image-rect"/> <svg x="0" y="0" width="30.35860153900332" height="30.382907865295557" filtersec="colorsb9257428224" class="image-svg-svg primary" style="overflow: visible;"><svg xmlns="http://www.w3.org/2000/svg" viewBox="0 -0.00012675373000092804 99.93804931640625 100.01763153076172"><path d="M94 26.27a50.08 50.08 0 0 0-2.82-4.6 190.89 190.89 0 0 0-29.73 6c-21.47 6.09-40 15.12-53 25a14.22 14.22 0 0 0-4.56 16.81v.1a36.41 36.41 0 0 1 6.84-8.87c14.6-14.08 32.06-21.93 56.15-28.77A194.26 194.26 0 0 1 94 26.27z" fill="#333"/><path d="M80.51 39.59a176.14 176.14 0 0 1 17.33-4 49.76 49.76 0 0 0-2.84-7.4c-3.68.82-7.41 1.73-11.19 2.68-28.68 7.18-51.71 19.48-63.71 33a19.17 19.17 0 0 0 4.58 29.22l.15.09c-5.73-7.45-4.05-18.65 5.55-27.91C43.39 52.71 59 45.7 80.51 39.59z" fill="#333"/><path d="M98.48 37.91l-2.92.72c-41 10.28-69.13 32.28-64.51 51.8a14.29 14.29 0 0 0 5 7.62 50 50 0 0 0 62.4-60.14z" fill="#333"/><path d="M44.57 28.75a177.45 177.45 0 0 1 46.58-7.09A50 50 0 0 0 0 47.93c12.09-7.55 27.4-14.31 44.57-19.18z" fill="#0582d2"/></svg></svg> </g></g></g></g> <g fill="#333" transform="translate(121.49860000610352, 0.9558397195740316)"><g transform="scale(1)"><path d="M16.75-25.26L16.6-24.88Q13.16-26.2 10.11-26.2 7.07-26.2 5.37-24.91 3.67-23.63 3.67-21.36L3.67-21.36Q3.67-18.6 6.54-17.09L6.54-17.09Q7.83-16.45 9.36-15.9 10.89-15.35 12.44-14.67 13.99-13.99 15.27-13.12 16.56-12.25 17.35-10.72 18.15-9.19 18.15-6.82 18.15-4.46 16.82-2.8 15.5-1.13 13.63-0.55 11.76 0.04 9.26 0.04L9.26 0.04Q4.61 0.04 1.32-2.27L1.32-2.27 1.51-2.57Q2.76-1.59 4.74-0.96 6.73-0.34 8.81-0.34L8.81-0.34Q11.87-0.34 14.05-1.76 16.22-3.18 16.22-5.94L16.22-5.94Q16.22-8.96 13.35-10.66L13.35-10.66Q12.06-11.42 10.53-12.06 9-12.7 7.45-13.4 5.9-14.1 4.61-14.97L4.61-14.97Q1.74-16.86 1.74-20.34L1.74-20.34Q1.74-23.1 3.59-24.82 5.44-26.54 9.17-26.54 12.89-26.54 16.75-25.26L16.75-25.26ZM39.17 0L36.86 0Q35.31 0 34.5-0.68 33.69-1.36 33.65-2.04L33.65-2.04 33.61-2.68 33.61-14.56Q33.61-17.54 32.02-18.37L32.02-18.37Q31.27-18.75 30.09-18.75L30.09-18.75Q27.75-18.75 25.88-16.84 24.01-14.93 24.01-13.42L24.01-13.42 24.01 0 21.36 0 21.36-28.32 24.01-28.32 24.01-14.59Q24.61-16.22 26.31-17.64 28.02-19.05 30.13-19.05L30.13-19.05Q33.8-19.05 35.03-17.79 36.26-16.52 36.26-14.52L36.26-14.52 36.26-2.68Q36.26-1.59 36.69-1 37.13-0.42 37.54-0.38L37.54-0.38 38-0.3 39.17-0.3 39.17 0ZM49.85 0.15Q45.86 0.15 43.36-2.12 40.87-4.39 40.87-9.11 40.87-13.84 43.46-16.45 46.05-19.05 50.04-19.05 54.03-19.05 56.52-16.79 59.02-14.52 59.02-9.79 59.02-5.07 56.43-2.46 53.84 0.15 49.85 0.15ZM50.09-18.75Q47.22-18.75 45.33-16.2 43.44-13.65 43.44-9.09 43.44-4.54 45.18-2.34 46.92-0.15 49.79-0.15 52.67-0.15 54.56-2.7 56.45-5.26 56.45-9.81 56.45-14.37 54.71-16.56 52.97-18.75 50.09-18.75ZM68.51-17.28L68.51-17.28 68.51-18.07Q66.81-17.39 65.41-15.33 64.01-13.27 63.93-11.46L63.93-11.46 63.93 0 61.29 0 61.29-18.9 63.93-18.9 63.93-12.89Q64.54-15.09 66.24-17.03 67.94-18.98 70.09-19.05L70.09-19.05 70.25-19.05Q71-19.05 71.51-18.54 72.02-18.03 72.02-17.28 72.02-16.52 71.51-16.03 71-15.54 70.25-15.54 69.49-15.54 69-16.03 68.51-16.52 68.51-17.28ZM76.29-9.22L76.29-9.22Q76.29-4.54 77.94-2.34 79.58-0.15 82.27-0.15L82.27-0.15Q86.05-0.15 89-1.29L89-1.29 89.11-1.02Q86.09 0.15 82.29 0.15 78.49 0.15 76.11-2.12 73.72-4.39 73.72-9.11 73.72-13.84 76.22-16.45 78.71-19.05 82.57-19.05L82.57-19.05Q85.67-19.05 87.79-17.2 89.91-15.35 89.91-11.72L89.91-11.72Q89.91-11.53 89.91-11.34L89.91-11.34 76.41-11.34Q76.29-10.32 76.29-9.22ZM87.33-11.64Q87.3-15.27 85.94-17.01 84.57-18.75 82.42-18.75 80.26-18.75 78.58-16.86 76.9-14.97 76.45-11.64L76.45-11.64 87.33-11.64Z" transform="translate(-1.3200000524520874, 28.31999969482422)"/></g></g></g> <g fill-rule="" class="tp-slogan iconsvg-slogansvg" fill="#333" transform="translate(5,36.38290786743164)"><rect x="0" height="1" y="11.380000114440918" width="35.90189743041992"/> <rect height="1" y="11.380000114440918" width="35.90189743041992" x="164.18669509887695"/> <g transform="translate(38.90189743041992,0)"><g transform="scale(1.9800000000000009)"><path d="M0.84 0L0.84-8.30Q2.23-8.40 3.30-8.40L3.30-8.40Q6.26-8.40 6.26-6.42L6.26-6.42Q6.26-5.68 5.83-5.14Q5.40-4.61 4.45-4.42L4.45-4.42Q5.36-4.31 5.89-3.86Q6.42-3.42 6.42-2.32L6.42-2.32Q6.42 0 3.46 0L3.46 0L0.84 0ZM1.84-4.33L1.84-0.12L3.46-0.12Q4.52-0.12 4.97-0.68Q5.42-1.24 5.42-2.39Q5.42-3.54 4.97-3.92Q4.51-4.31 3.61-4.33L3.61-4.33L1.84-4.33ZM3.30-8.28L3.30-8.28Q2.60-8.28 1.84-8.20L1.84-8.20L1.84-4.45L3.61-4.45Q5.30-4.52 5.30-6.40L5.30-6.40Q5.30-7.31 4.80-7.79Q4.30-8.28 3.30-8.28ZM10.17 0.05Q8.90 0.05 8.11-0.67Q7.32-1.39 7.32-2.89Q7.32-4.39 8.14-5.22Q8.96-6.05 10.23-6.05Q11.50-6.05 12.29-5.33Q13.08-4.61 13.08-3.11Q13.08-1.61 12.26-0.78Q11.44 0.05 10.17 0.05ZM10.25-5.95Q9.34-5.95 8.74-5.14Q8.14-4.33 8.14-2.89Q8.14-1.44 8.69-0.74Q9.24-0.05 10.15-0.05Q11.06-0.05 11.66-0.86Q12.26-1.67 12.26-3.11Q12.26-4.56 11.71-5.26Q11.16-5.95 10.25-5.95ZM16.89 0.05Q15.62 0.05 14.83-0.67Q14.04-1.39 14.04-2.89Q14.04-4.39 14.86-5.22Q15.68-6.05 16.95-6.05Q18.22-6.05 19.01-5.33Q19.80-4.61 19.80-3.11Q19.80-1.61 18.98-0.78Q18.16 0.05 16.89 0.05ZM16.97-5.95Q16.06-5.95 15.46-5.14Q14.86-4.33 14.86-2.89Q14.86-1.44 15.41-0.74Q15.96-0.05 16.87-0.05Q17.78-0.05 18.38-0.86Q18.98-1.67 18.98-3.11Q18.98-4.56 18.43-5.26Q17.88-5.95 16.97-5.95ZM20.64-9L21.48-9L21.48-3.02L24.12-6L24.24-6L22.28-3.79L24.86 0L24.02 0L21.80-3.26L21.48-2.89L21.48 0L20.64 0L20.64-9ZM25.88-9L26.72-9L26.72-3.02L29.36-6L29.48-6L27.53-3.79L30.11 0L29.27 0L27.05-3.26L26.72-2.89L26.72 0L25.88 0L25.88-9ZM31.34-2.93L31.34-2.93Q31.34-1.44 31.87-0.74Q32.39-0.05 33.24-0.05L33.24-0.05Q34.44-0.05 35.38-0.41L35.38-0.41L35.41-0.32Q34.45 0.05 33.25 0.05Q32.04 0.05 31.28-0.67Q30.53-1.39 30.53-2.89Q30.53-4.39 31.32-5.22Q32.11-6.05 33.34-6.05L33.34-6.05Q34.32-6.05 34.99-5.46Q35.66-4.87 35.66-3.72L35.66-3.72Q35.66-3.66 35.66-3.60L35.66-3.60L31.38-3.60Q31.34-3.28 31.34-2.93ZM34.85-3.70Q34.84-4.85 34.40-5.40Q33.97-5.95 33.29-5.95Q32.60-5.95 32.07-5.35Q31.54-4.75 31.39-3.70L31.39-3.70L34.85-3.70ZM37.33-2.93L37.33-2.93Q37.33-1.44 37.85-0.74Q38.38-0.05 39.23-0.05L39.23-0.05Q40.43-0.05 41.36-0.41L41.36-0.41L41.40-0.32Q40.44 0.05 39.23 0.05Q38.03 0.05 37.27-0.67Q36.52-1.39 36.52-2.89Q36.52-4.39 37.31-5.22Q38.10-6.05 39.32-6.05L39.32-6.05Q40.31-6.05 40.98-5.46Q41.65-4.87 41.65-3.72L41.65-3.72Q41.65-3.66 41.65-3.60L41.65-3.60L37.37-3.60Q37.33-3.28 37.33-2.93ZM40.84-3.70Q40.82-4.85 40.39-5.40Q39.96-5.95 39.28-5.95Q38.59-5.95 38.06-5.35Q37.52-4.75 37.38-3.70L37.38-3.70L40.84-3.70ZM42.26 3L42.26-6L43.10-6L43.10-4.51Q43.31-5.06 43.86-5.56Q44.41-6.05 45.11-6.05L45.11-6.05Q47.54-6.05 47.54-3.19L47.54-3.19Q47.54 0.05 44.40 0.05L44.40 0.05Q43.84 0.05 43.10-0.22L43.10-0.22L43.10 3L42.26 3ZM45.10-5.95L45.10-5.95Q44.35-5.95 43.75-5.31Q43.15-4.67 43.10-4.15L43.10-4.15L43.10-0.32Q43.84-0.05 44.39-0.05L44.39-0.05Q46.70-0.05 46.70-3.20L46.70-3.20Q46.70-5.95 45.10-5.95ZM50.46 0L49.73 0Q49.24 0 48.98-0.22Q48.72-0.43 48.71-0.65L48.71-0.65L48.70-0.85L48.70-6L49.54-6L49.54-0.85Q49.54-0.50 49.67-0.32Q49.81-0.13 49.94-0.12L49.94-0.12L50.09-0.10L50.46-0.10L50.46 0ZM48.77-7.34Q48.62-7.49 48.62-7.70Q48.62-7.92 48.77-8.07Q48.91-8.22 49.13-8.22Q49.34-8.22 49.49-8.07Q49.64-7.92 49.64-7.70Q49.64-7.49 49.49-7.34Q49.34-7.20 49.13-7.20Q48.91-7.20 48.77-7.34ZM56.89 0L56.16 0Q55.67 0 55.41-0.22Q55.15-0.43 55.14-0.65L55.14-0.65L55.13-0.85L55.13-4.62Q55.13-5.57 54.64-5.83L54.64-5.83Q54.38-5.95 54.01-5.95L54.01-5.95Q53.24-5.95 52.63-5.35Q52.02-4.74 52.02-4.26L52.02-4.26L52.02 0L51.18 0L51.18-6L52.02-6L52.02-4.63Q52.22-5.15 52.78-5.60Q53.33-6.05 53.99-6.05Q54.65-6.05 55.06-5.92Q55.48-5.80 55.67-5.57L55.67-5.57Q55.97-5.20 55.97-4.61L55.97-4.61L55.97-0.85Q55.97-0.50 56.11-0.32Q56.24-0.13 56.39-0.12L56.39-0.12L56.52-0.10L56.89-0.10L56.89 0ZM57.31-2.78L57.31-2.78Q57.31-4.34 58.07-5.20Q58.82-6.05 60.34-6.05L60.34-6.05Q61.45-6.05 62.60-5.65L62.60-5.65L62.60 0.14Q62.59 3 60.11 3L60.11 3Q58.74 3 57.77 2.11L57.77 2.11L57.85 2.04Q58.88 2.90 60.11 2.90L60.11 2.90Q61.76 2.90 61.76 0.14L61.76 0.14L61.76-1.04Q61.54-0.62 61.01-0.30Q60.48 0.02 59.76 0.02L59.76 0.02Q57.31-0.04 57.31-2.78ZM59.77-0.07L59.77-0.07Q60.58-0.07 61.15-0.50Q61.73-0.94 61.76-1.36L61.76-1.36L61.76-5.59Q60.90-5.95 60.30-5.95L60.30-5.95Q59.23-5.95 58.69-5.12Q58.15-4.28 58.15-2.78L58.15-2.78Q58.15-0.07 59.77-0.07Z" transform="translate(-0.84, 9)"/></g></g></g></g><defs v-gra="od"/>
</svg>


